<svg id="Слой_1" xmlns="http://www.w3.org/2000/svg" viewBox="0 0 1366 261"><style>.st0{fill:#139cdd}.st1{fill:#6a6a6a}</style><path class="st0" d="M175.6 168.3h19.7v27.9h-43l-44.7-70.7v42.8h16.1v27.9H53.3v-27.9h17.6V82.7H54V54.8h65.2v27.9h-11.6v32.5l28.1-38.3c5.2-7 10.8-12.5 16.8-16.6 6.1-4.1 13-6.2 20.7-6.2 3.9 0 7.9.4 12.1 1.1 4.2.7 7.7 1.5 10.6 2.2l-1 42h-25.8l-3.7-15.1-5.6 9.3-16.8 23.2 32.6 51.5zm99.9 0v27.9h-67.8v-27.9h14.5V82.7h-14.5V54.8h66.4c11.4 0 20.4 1.5 27.1 4.5S313 66 316.5 70.4c3.5 4.5 5.7 9.3 6.8 14.4 1 5.2 1.5 10 1.5 14.5 0 14.7-4.4 25.9-13.1 33.5-8.7 7.6-20.6 11.4-35.7 11.4h-17.2v24h16.7zm-16.6-85.6v35.4h14.9c2.7 0 5-.5 6.9-1.6 1.9-1 3.3-2.4 4.4-4.2 1-1.7 1.8-3.7 2.2-5.8.5-2.1.7-4.4.7-6.7s-.2-4.5-.7-6.6c-.4-2.1-1.3-3.9-2.6-5.5s-3.1-2.9-5.3-3.8c-2.3-.9-5.2-1.4-8.8-1.4h-11.7zm159.3-27.9h61.2v27.9h-13.5v85.6h13.4v27.9h-65.2v-27.9H429v-46.5l-43.9 46.5h15.3v27.9h-65.8v-27.9h15.1V82.7h-14.9V54.8h63.1v27.9h-11.4v45.7l43.2-45.7h-11.4V54.8zm138.2 143.9c-23.1 0-39.9-6.3-50.4-19.1-10.5-12.7-15.8-30.8-15.8-54.1 0-5.5.2-11.1.7-16.6.4-5.5 1.4-10.8 2.9-15.9s3.7-10 6.6-14.6c2.9-4.6 6.8-9 11.7-13 6.5-5.3 13.5-8.8 21.2-10.5s15.4-2.6 23.1-2.6c8.9.3 17.2 1.3 24.9 3.1 7.7 1.8 15.7 4.7 24.1 8.7l-2.1 39.1h-28.7l-2.3-19c-2.2-.4-4.5-.9-6.8-1.4-2.3-.6-5.4-.9-9.1-.9-9.3 0-16.2 3.1-20.7 9.4-4.5 6.3-6.8 15.5-6.8 27.8v12.8c0 4.4.4 8.8 1.2 13.3.8 4.5 2.2 8.5 4.3 12 2.1 3.6 4.9 6.4 8.4 8.6 3.6 2.2 8.1 3.3 13.7 3.3 3 0 5.9-.2 8.7-.6 2.8-.4 5.5-1.2 8.1-2.3v-22.8h33.1v37.4c-3.9 3.5-7.6 6.4-11.3 8.6-3.7 2.3-7.5 4.1-11.5 5.5-4 1.4-8.2 2.4-12.7 3-4.5.5-9.3.8-14.5.8zm192.8-87.3H719l-3.1-28.7h-13.7v85.6h16.7v27.9h-71.1v-27.9h17.6V82.7h-13.7l-3.1 28.7h-30.2V54.8h130.9v56.6zm141.9 84.7h-68.5v-27.9h17.8l-5.4-16.5h-39.3l-4.6 16.5H807v27.9h-63.7v-27.9h13.9l28.5-85.6h-11.4V54.8H859v27.9h-11.4l28.5 85.6h15.1v27.8zM813.5 82.7l-.6 8.3-10.5 36.8h24.2l-13.1-45.1zm123.6 63.7c.8-6.3 1.3-13 1.3-19.9V82.7h-15.5V54.8h121.4v27.9h-12.8v85.6h12.6v27.9h-64.9v-27.9h15.5V82.7h-21.5v30.2c0 5-.1 10.3-.3 15.8-.2 5.5-.7 10.9-1.5 16.4-.8 5.4-2 10.7-3.8 15.9-1.7 5.2-4.2 9.9-7.3 14.3-4.9 7-10.5 12.3-16.9 16-6.4 3.7-13.3 5.5-20.6 5.5-3.7 0-7.7-.6-11.8-1.7-4.1-1.2-8-2.4-11.6-3.9l2.3-41.6h23.4l5 14.7c3.9-5.6 6.2-11.6 7-17.9zm154.3 0c.8-6.3 1.3-13 1.3-19.9V82.7h-15.5V54.8h121.4v27.9h-12.8v85.6h12.6v27.9h-64.9v-27.9h15.5V82.7h-21.5v30.2c0 5-.1 10.3-.3 15.8-.2 5.5-.7 10.9-1.5 16.4-.8 5.4-2 10.7-3.8 15.9-1.7 5.2-4.2 9.9-7.3 14.3-4.9 7-10.5 12.3-16.9 16-6.4 3.7-13.3 5.5-20.6 5.5-3.7 0-7.7-.6-11.8-1.7-4.1-1.2-8-2.4-11.6-3.9l2.3-41.6h23.4l5 14.7c3.9-5.6 6.2-11.6 7-17.9z"/><path class="st1" d="M1215 121.8h35V86h27.9v35.8h34.1v26.5h-34.1v35.8H1250v-35.8h-35v-26.5z"/></svg>