<?xml version="1.0" encoding="utf-8"?>
<!-- Generator: Adobe Illustrator 21.0.2, SVG Export Plug-In . SVG Version: 6.00 Build 0)  -->
<svg version="1.1" id="Слой_1" xmlns="http://www.w3.org/2000/svg" xmlns:xlink="http://www.w3.org/1999/xlink" x="0px" y="0px"
	 viewBox="0 0 1366 261" style="enable-background:new 0 0 1366 261;" xml:space="preserve">
<style type="text/css">
	.st0{fill:#139CDD;}
	.st1{fill:#6A6A6A;}
</style>
<g>
	<path class="st0" d="M175.6,168.3h19.7v27.9h-43l-44.7-70.7v42.8h16.1v27.9H53.3v-27.9h17.6V82.7H54V54.8h65.2v27.9h-11.6v32.5
		l28.1-38.3c5.2-7,10.8-12.5,16.8-16.6c6.1-4.1,13-6.2,20.7-6.2c3.9,0,7.9,0.4,12.1,1.1c4.2,0.7,7.7,1.5,10.6,2.2l-1,42h-25.8
		l-3.7-15.1l-5.6,9.3l-16.8,23.2L175.6,168.3z"/>
	<path class="st0" d="M275.5,168.3v27.9h-67.8v-27.9h14.5V82.7h-14.5V54.8h66.4c11.4,0,20.4,1.5,27.1,4.5s11.8,6.7,15.3,11.1
		c3.5,4.5,5.7,9.3,6.8,14.4c1,5.2,1.5,10,1.5,14.5c0,14.7-4.4,25.9-13.1,33.5c-8.7,7.6-20.6,11.4-35.7,11.4h-17.2v24H275.5z
		 M258.9,82.7v35.4h14.9c2.7,0,5-0.5,6.9-1.6c1.9-1,3.3-2.4,4.4-4.2c1-1.7,1.8-3.7,2.2-5.8c0.5-2.1,0.7-4.4,0.7-6.7
		c0-2.3-0.2-4.5-0.7-6.6c-0.4-2.1-1.3-3.9-2.6-5.5c-1.3-1.6-3.1-2.9-5.3-3.8c-2.3-0.9-5.2-1.4-8.8-1.4H258.9z"/>
	<path class="st0" d="M418.2,54.8h61.2v27.9h-13.5v85.6h13.4v27.9h-65.2v-27.9H429v-46.5l-43.9,46.5h15.3v27.9h-65.8v-27.9h15.1
		V82.7h-14.9V54.8h63.1v27.9h-11.4v45.7l43.2-45.7h-11.4V54.8z"/>
	<path class="st0" d="M556.4,198.7c-23.1,0-39.9-6.3-50.4-19.1c-10.5-12.7-15.8-30.8-15.8-54.1c0-5.5,0.2-11.1,0.7-16.6
		c0.4-5.5,1.4-10.8,2.9-15.9c1.5-5.1,3.7-10,6.6-14.6c2.9-4.6,6.8-9,11.7-13c6.5-5.3,13.5-8.8,21.2-10.5s15.4-2.6,23.1-2.6
		c8.9,0.3,17.2,1.3,24.9,3.1c7.7,1.8,15.7,4.7,24.1,8.7l-2.1,39.1h-28.7l-2.3-19c-2.2-0.4-4.5-0.9-6.8-1.4c-2.3-0.6-5.4-0.9-9.1-0.9
		c-9.3,0-16.2,3.1-20.7,9.4c-4.5,6.3-6.8,15.5-6.8,27.8v12.8c0,4.4,0.4,8.8,1.2,13.3c0.8,4.5,2.2,8.5,4.3,12
		c2.1,3.6,4.9,6.4,8.4,8.6c3.6,2.2,8.1,3.3,13.7,3.3c3,0,5.9-0.2,8.7-0.6c2.8-0.4,5.5-1.2,8.1-2.3v-22.8h33.1v37.4
		c-3.9,3.5-7.6,6.4-11.3,8.6c-3.7,2.3-7.5,4.1-11.5,5.5c-4,1.4-8.2,2.4-12.7,3C566.4,198.4,561.6,198.7,556.4,198.7z"/>
	<path class="st0" d="M749.2,111.4H719l-3.1-28.7h-13.7v85.6h16.7v27.9h-71.1v-27.9h17.6V82.7h-13.7l-3.1,28.7h-30.2V54.8h130.9
		V111.4z"/>
	<path class="st0" d="M891.1,196.1h-68.5v-27.9h17.8l-5.4-16.5h-39.3l-4.6,16.5h15.9v27.9h-63.7v-27.9h13.9l28.5-85.6h-11.4V54.8
		H859v27.9h-11.4l28.5,85.6h15.1V196.1z M813.5,82.7l-0.6,8.3l-10.5,36.8h24.2L813.5,82.7z"/>
	<path class="st0" d="M937.1,146.4c0.8-6.3,1.3-13,1.3-19.9V82.7h-15.5V54.8h121.4v27.9h-12.8v85.6h12.6v27.9h-64.9v-27.9h15.5V82.7
		h-21.5v30.2c0,5-0.1,10.3-0.3,15.8c-0.2,5.5-0.7,10.9-1.5,16.4c-0.8,5.4-2,10.7-3.8,15.9c-1.7,5.2-4.2,9.9-7.3,14.3
		c-4.9,7-10.5,12.3-16.9,16c-6.4,3.7-13.3,5.5-20.6,5.5c-3.7,0-7.7-0.6-11.8-1.7c-4.1-1.2-8-2.4-11.6-3.9l2.3-41.6h23.4l5,14.7
		C934,158.7,936.3,152.7,937.1,146.4z"/>
	<path class="st0" d="M1091.4,146.4c0.8-6.3,1.3-13,1.3-19.9V82.7h-15.5V54.8h121.4v27.9h-12.8v85.6h12.6v27.9h-64.9v-27.9h15.5
		V82.7h-21.5v30.2c0,5-0.1,10.3-0.3,15.8c-0.2,5.5-0.7,10.9-1.5,16.4c-0.8,5.4-2,10.7-3.8,15.9c-1.7,5.2-4.2,9.9-7.3,14.3
		c-4.9,7-10.5,12.3-16.9,16c-6.4,3.7-13.3,5.5-20.6,5.5c-3.7,0-7.7-0.6-11.8-1.7c-4.1-1.2-8-2.4-11.6-3.9l2.3-41.6h23.4l5,14.7
		C1088.3,158.7,1090.6,152.7,1091.4,146.4z"/>
	<path class="st1" d="M1215,121.8h35V86h27.9v35.8h34.1v26.5h-34.1v35.8h-27.9v-35.8h-35V121.8z"/>
</g>
</svg>
